<svg id="Layer_1" data-name="Layer 1" xmlns="http://www.w3.org/2000/svg" viewBox="0 0 64 64"><title>crib</title><path d="M12,53V51.73A1.73,1.73,0,0,0,10.27,50H5.73A1.73,1.73,0,0,0,4,51.73V53a1,1,0,0,0,1,1H11A1,1,0,0,0,12,53Z"/><path d="M56,10a4,4,0,0,0-2,7.45V20H12v4h2V36h4V24h4V36h4V24h4V36h4V24h4V36h4V24h4V36h4V24h4V38H10V17.45a4,4,0,1,0-4,0V48h4V46H54v2h4V17.45A4,4,0,0,0,56,10Z"/><path d="M58.27,50H53.73A1.73,1.73,0,0,0,52,51.73V53a1,1,0,0,0,1,1H59a1,1,0,0,0,1-1V51.73A1.73,1.73,0,0,0,58.27,50Z"/></svg>